PathFileType	4	(X/Y/Z)	/Users/itak/Documents/Research/Walk-IL/dataset/trc/00047_00004.trc
DataRate	CameraRate	NumFrames	NumMarkers	Units	OrigDataRate	OrigDataStartFrame	OrigNumFrames
100.000000	100.000000	4	53	mm	100.000000	128	512
Frame#	Time	RPSI			LPSI			L3			STRN			T10			C7			CLAV			RBAK			LBAK			LSHO			LUPA			LAEL			LAOL			LWTS			LWPS			LFRA			LIFD			LHPS			LHTS			RSHO			RUPA			RAEL			RAOL			RWTS			RWPS			RFRA			RIFD			RHTS			RHPS			RBHD			LFHD			RFHD			LBHD			LHIP			RHIP			RASI			LASI			LKNE			LTHI			LANK			LTIP			LTOE			LMT1			LMT5			LHEE			RKNE			RTHI			RANK			RTIP			RTOE			RMT1			RMT5			RHEE			
		X1	Y1	Z1	X2	Y2	Z2	X3	Y3	Z3	X4	Y4	Z4	X5	Y5	Z5	X6	Y6	Z6	X7	Y7	Z7	X8	Y8	Z8	X9	Y9	Z9	X10	Y10	Z10	X11	Y11	Z11	X12	Y12	Z12	X13	Y13	Z13	X14	Y14	Z14	X15	Y15	Z15	X16	Y16	Z16	X17	Y17	Z17	X18	Y18	Z18	X19	Y19	Z19	X20	Y20	Z20	X21	Y21	Z21	X22	Y22	Z22	X23	Y23	Z23	X24	Y24	Z24	X25	Y25	Z25	X26	Y26	Z26	X27	Y27	Z27	X28	Y28	Z28	X29	Y29	Z29	X30	Y30	Z30	X31	Y31	Z31	X32	Y32	Z32	X33	Y33	Z33	X34	Y34	Z34	X35	Y35	Z35	X36	Y36	Z36	X37	Y37	Z37	X38	Y38	Z38	X39	Y39	Z39	X40	Y40	Z40	X41	Y41	Z41	X42	Y42	Z42	X43	Y43	Z43	X44	Y44	Z44	X45	Y45	Z45	X46	Y46	Z46	X47	Y47	Z47	X48	Y48	Z48	X49	Y49	Z49	X50	Y50	Z50	X51	Y51	Z51	X52	Y52	Z52	X53	Y53	Z53	

129	1.28	-1183.709106445312	1078.68994140625	242.29736328125	-1200.724365234375	1069.542114257812	78.44834899902344	-1197.09033203125	1128.80908203125	150.1338348388672	-979.1302490234375	1323.123046875	137.7996368408203	-1226.083862304688	1270.455932617188	144.7120361328125	-1181.814086914062	1538.858520507812	125.8622283935547	-1021.985290527344	1448.807250976562	132.1892547607422	-1229.559326171875	1402.016479492188	209.2351379394531	-1199.515991210938	1493.931518554688	28.45534706115723	-1097.748168945312	1502.1669921875	-47.05345153808594	-1125.223510742188	1372.656616210938	-119.3743667602539	-1117.9306640625	1153.606323242188	-138.1259918212891	-1172.011108398438	1143.028564453125	-47.61209487915039	-1025.714965820312	904.04833984375	-75.68071746826172	-1102.797729492188	887.368896484375	-116.5973434448242	-1102.796997070312	1037.705200195312	-140.5665893554688	-994.4347534179688	722.9783325195312	-49.83032989501953	-1067.807861328125	798.073486328125	-113.5910720825195	-1003.168579101562	810.8486328125	-85.43130493164062	-1103.800903320312	1527.989135742188	301.114990234375	-1116.7900390625	1459.643920898438	374.2723999023438	-1149.596435546875	1191.966430664062	406.1781311035156	-1148.785034179688	1161.6005859375	310.1634826660156	-1018.13623046875	932.7908935546875	382.7850036621094	-1081.58349609375	919.2454223632812	448.5859985351562	-1135.84521484375	1116.212768554688	424.3653869628906	-1001.457092285156	747.5147705078125	370.4814147949219	-984.0370483398438	824.3806762695312	398.088134765625	-1038.2890625	819.7919921875	449.9490356445312	-1129.290649414062	1714.179931640625	43.1019172668457	-979.9856567382812	1753.122436523438	197.1277008056641	-961.622802734375	1751.076782226562	100.7245941162109	-1150.486938476562	1715.839599609375	186.1649780273438	-1114.9111328125	961.9794311523438	-35.17862319946289	-1065.8349609375	961.4971313476562	334.903564453125	-970.4392700195312	994.1146850585938	250.5159606933594	-991.6068115234375	1008.135986328125	15.94114875793457	-1077.558959960938	517.5604248046875	22.49922370910645	-1099.974609375	653.34912109375	-16.6223201751709	-1188.848510742188	41.00095748901367	38.89581680297852	-1164.1953125	287.3782348632812	13.88411235809326	-969.6196899414062	41.6324348449707	105.0583801269531	-1027.951904296875	52.89183044433594	119.6689758300781	-1065.571655273438	41.83816528320312	20.09438514709473	-1259.323120117188	48.03402709960938	89.94642639160156	-1077.820922851562	524.8974609375	291.80419921875	-1048.985229492188	793.2725219726562	331.512939453125	-1201.899047851562	47.06088638305664	282.7139282226562	-1105.97119140625	403.9807739257812	294.5230407714844	-972.2045288085938	45.42974472045898	227.1236572265625	-1036.775634765625	50.36767959594727	200.5158843994141	-1051.732421875	44.40678405761719	296.3008117675781	-1258.455078125	47.13444900512695	240.4482116699219	
130	1.29	-1183.38037109375	1078.689575195312	241.8167877197266	-1200.520263671875	1069.591552734375	77.96285247802734	-1196.841674804688	1128.882202148438	149.6173400878906	-978.55859375	1322.9208984375	137.1785430908203	-1225.549560546875	1270.608764648438	144.3421783447266	-1180.943359375	1538.971313476562	125.5469665527344	-1021.268493652344	1448.707641601562	131.6446685791016	-1228.858032226562	1402.15380859375	208.900634765625	-1198.859130859375	1494.113037109375	28.12576675415039	-1097.164184570312	1502.190551757812	-47.51347351074219	-1124.949951171875	1372.756103515625	-119.7975616455078	-1118.161865234375	1153.684692382812	-138.56298828125	-1172.117553710938	1143.197631835938	-47.97359466552734	-1026.189575195312	904.020263671875	-76.14302062988281	-1103.358642578125	887.4180297851562	-116.9658279418945	-1103.186401367188	1037.737548828125	-140.9898071289062	-995.07666015625	722.9175415039062	-50.32504653930664	-1068.46923828125	798.0868530273438	-113.9946441650391	-1003.810913085938	810.7540893554688	-85.89409637451172	-1102.773681640625	1527.90478515625	300.686279296875	-1115.75146484375	1459.544189453125	373.84912109375	-1148.712768554688	1191.8994140625	405.8241882324219	-1148.064086914062	1161.546508789062	309.8160095214844	-1017.728759765625	932.565185546875	382.1223754882812	-1080.87841796875	919.0946655273438	448.1086120605469	-1135.04296875	1116.146118164062	423.945068359375	-1001.052062988281	747.2969970703125	369.8111572265625	-983.5671997070312	824.1198120117188	397.4321594238281	-1037.59814453125	819.5769653320312	449.3385620117188	-1127.400756835938	1713.976806640625	42.1063232421875	-979.6282348632812	1753.071533203125	197.5507354736328	-960.2919311523438	1750.894897460938	101.3053741455078	-1150.07177734375	1715.795166015625	184.9192352294922	-1114.79052734375	961.9465942382812	-35.68069458007812	-1065.417724609375	961.5061645507812	334.3014831542969	-970.1295166015625	993.990234375	249.8169708251953	-991.6044311523438	1008.04443359375	15.28224945068359	-1077.22412109375	517.7578125	22.13801574707031	-1099.771118164062	653.329345703125	-17.10971832275391	-1188.856201171875	40.95944595336914	38.85073471069336	-1163.866088867188	287.3064575195312	13.71249294281006	-969.7030029296875	41.70281600952148	105.0649566650391	-1028.0009765625	52.93525314331055	119.6984405517578	-1065.57275390625	41.86854553222656	20.11229515075684	-1259.348510742188	47.98245620727539	89.91963195800781	-1077.5224609375	524.802978515625	291.4397888183594	-1048.565551757812	793.3041381835938	330.9857482910156	-1201.892211914062	47.06907272338867	282.7136840820312	-1105.758422851562	403.9436645507812	294.267333984375	-972.2069091796875	45.4301872253418	227.1214599609375	-1036.769897460938	50.34870147705078	200.5032196044922	-1051.743286132812	44.41416931152344	296.2852172851562	-1258.466430664062	47.14352798461914	240.4449768066406	
131	1.3	-1183.024291992188	1078.701171875	241.3053894042969	-1200.319946289062	1069.643432617188	77.44304656982422	-1196.577514648438	1128.9677734375	149.0711059570312	-977.9566040039062	1322.714721679688	136.5200653076172	-1224.977172851562	1270.768920898438	143.9456787109375	-1180.057495117188	1539.060180664062	125.1702117919922	-1020.523681640625	1448.610595703125	131.0545043945312	-1228.124755859375	1402.293212890625	208.5273132324219	-1198.155029296875	1494.297973632812	27.75891304016113	-1096.531982421875	1502.219848632812	-48.01177215576172	-1124.630859375	1372.85595703125	-120.2612457275391	-1118.354370117188	1153.760375976562	-139.0375213623047	-1172.191650390625	1143.376586914062	-48.37836456298828	-1026.709106445312	903.9619750976562	-76.64592742919922	-1103.91748046875	887.46435546875	-117.373779296875	-1103.577392578125	1037.771484375	-141.4588317871094	-995.627197265625	722.939453125	-50.79356002807617	-1069.153198242188	798.0990600585938	-114.4414825439453	-1004.477111816406	810.6429443359375	-86.40629577636719	-1101.728637695312	1527.820068359375	300.2096252441406	-1114.68896484375	1459.449096679688	373.3793640136719	-1147.818359375	1191.841064453125	405.4280395507812	-1147.304443359375	1161.494873046875	309.442626953125	-1017.273315429688	932.365966796875	381.4270629882812	-1080.12744140625	918.95654296875	447.6128540039062	-1134.233764648438	1116.091186523438	423.48046875	-1000.610107421875	747.117431640625	369.152099609375	-983.09228515625	823.8681640625	396.7589721679688	-1036.885620117188	819.3882446289062	448.6946105957031	-1125.516479492188	1713.7900390625	41.09778594970703	-979.2233276367188	1753.009399414062	197.9100341796875	-958.9340209960938	1750.72607421875	101.8222274780273	-1149.582275390625	1715.725952148438	183.6704711914062	-1114.7109375	961.9148559570312	-36.23968124389648	-1064.965454101562	961.5070190429688	333.6555786132812	-969.7826538085938	993.8697509765625	249.1010131835938	-991.6070556640625	1007.945495605469	14.58552837371826	-1076.788208007812	517.9616088867188	21.79956245422363	-1099.491943359375	653.3001708984375	-17.60345840454102	-1188.86328125	40.91738891601562	38.80519485473633	-1163.445678710938	287.219970703125	13.53977108001709	-969.7897338867188	41.77833557128906	105.0762329101562	-1028.048461914062	52.98347091674805	119.7369232177734	-1065.572631835938	41.90139007568359	20.1348762512207	-1259.378173828125	47.92861938476562	89.88877105712891	-1077.166015625	524.7037353515625	291.0386047363281	-1048.097778320312	793.3204345703125	330.4607238769531	-1201.88525390625	47.08115005493164	282.7096252441406	-1105.513793945312	403.9094543457031	293.9785461425781	-972.2078247070312	45.43125152587891	227.1183929443359	-1036.755737304688	50.32286834716797	200.4919281005859	-1051.757080078125	44.42390441894531	296.2682189941406	-1258.485229492188	47.16143798828125	240.4333038330078	
132	1.31	-1182.644165039062	1078.724731445312	240.7611389160156	-1200.11865234375	1069.694091796875	76.89431762695312	-1196.296142578125	1129.064575195312	148.4985961914062	-977.3240966796875	1322.510864257812	135.8229370117188	-1224.376831054688	1270.935913085938	143.5173797607422	-1179.156982421875	1539.130249023438	124.7326431274414	-1019.748779296875	1448.51513671875	130.4175415039062	-1227.350952148438	1402.434814453125	208.1206512451172	-1197.405883789062	1494.485229492188	27.35231971740723	-1095.849609375	1502.256103515625	-48.54682159423828	-1124.264526367188	1372.956298828125	-120.76416015625	-1118.504150390625	1153.833862304688	-139.5514526367188	-1172.227783203125	1143.56689453125	-48.82417297363281	-1027.269287109375	903.8740844726562	-77.197021484375	-1104.490112304688	887.51171875	-117.8308868408203	-1103.964233398438	1037.808349609375	-141.9738311767578	-996.1296997070312	723.0161743164062	-51.26365280151367	-1069.867431640625	798.107177734375	-114.9348983764648	-1005.169372558594	810.5189819335938	-86.97864532470703	-1100.663818359375	1527.738891601562	299.6855773925781	-1113.5966796875	1459.363159179688	372.8668823242188	-1146.917724609375	1191.794921875	404.9863586425781	-1146.510986328125	1161.449340820312	309.0389709472656	-1016.753662109375	932.1989135742188	380.70849609375	-1079.345458984375	918.8386840820312	447.088623046875	-1133.423583984375	1116.050048828125	422.969482421875	-1000.126831054688	746.9822387695312	368.4997863769531	-982.6151733398438	823.633544921875	396.0655212402344	-1036.166015625	819.2359008789062	448.0267333984375	-1123.6416015625	1713.621826171875	40.08126068115234	-978.7661743164062	1752.93359375	198.2026214599609	-957.5484008789062	1750.575805664062	102.2712783813477	-1149.016235351562	1715.639282226562	182.4256896972656	-1114.672729492188	961.8831176757812	-36.85502243041992	-1064.48193359375	961.5025024414062	332.9630737304688	-969.3988647460938	993.7539672851562	248.361083984375	-991.61181640625	1007.841918945312	13.84835243225098	-1076.230590820312	518.1671752929688	21.49160575866699	-1099.119262695312	653.2581787109375	-18.09309577941895	-1188.868896484375	40.87545776367188	38.76023483276367	-1162.913452148438	287.11328125	13.37456512451172	-969.87646484375	41.85799026489258	105.0950622558594	-1028.094604492188	53.03383636474609	119.786865234375	-1065.5703125	41.93753814697266	20.16397094726562	-1259.411254882812	47.87322235107422	89.85423278808594	-1076.748168945312	524.6158447265625	290.5997619628906	-1047.595336914062	793.3213500976562	329.9371337890625	-1201.879150390625	47.0986213684082	282.7003173828125	-1105.227783203125	403.8847351074219	293.6552429199219	-972.2068481445312	45.43383026123047	227.1147613525391	-1036.734619140625	50.29049301147461	200.4820251464844	-1051.772827148438	44.43452835083008	296.2502136230469	-1258.509643554688	47.18704986572266	240.4124603271484	
